<?xml version="1.0" encoding="UTF-8"?>
<svg id="Design" xmlns="http://www.w3.org/2000/svg" version="1.1" viewBox="0 0 363.1 172.9">
  <!-- Generator: Adobe Illustrator 29.8.5, SVG Export Plug-In . SVG Version: 2.1.1 Build 2)  -->
  <defs>
    <style>
      .st0 {
        fill: #1e1e1c;
      }
    </style>
  </defs>
  <path class="st0" d="M222.4,31.6c.6-.2,1.9-.2,3.8-.2v13.1c0,1.8-.2,1.9-1.1,2h0c.6,0,1.3,0,1.9,0s1.3,0,1.9,0h0c-.9-.2-1-.3-1.1-2.1v-13.1c2,0,3,0,3.7.2.7.1.8.3.8.7s0,.2,0,.3h.1c0-.2.2-.6.3-1.2.2-.6.3-1,.4-1.1h-.1c-.3.3-.8.4-1.5.5-.7,0-2.3,0-5,0s-3.8,0-4.2-.2c-.3,0-.5-.3-.6-.6h-.1c-.1.5-.2,1.1-.4,1.6-.2.6-.3.9-.3,1.2h.1c.3-.7.8-1.1,1.4-1.2ZM234.3,69.4c-.2.4-.3.9-.3,1.4s.1,1.2.1,1.5,0,.5,0,.6c0,0,.2,0,.3,0,.3,0,.8,0,1.4.2.6.2,1.2.2,1.7.2,1.3,0,2.4-.4,3.3-1.2.9-.8,1.3-1.9,1.3-3.3s-.7-2.9-1.7-3.7c-.5-.4-1-.8-1.6-1.2-1.1-.8-2.2-1.4-2.8-2.5-.3-.6-.5-1.1-.5-1.8,0-1.7,1.2-2.5,2.7-2.5s2.8.8,3.1,2.5h.1c0-.2,0-.6,0-1.2s0-1,0-1.5c0,0-.2,0-.4,0-.2,0-.7,0-1.3-.2-.6-.1-1.1-.2-1.6-.2-1.2,0-2.2.4-2.9,1.1-.8.7-1.1,1.7-1.1,2.8,0,4.8,6.6,4.7,6.6,9.1s-1.3,3-3,3-1.8-.2-2.5-.8c-.7-.5-1-1.2-1-2s0-.3,0-.6h-.1ZM238.1,46.6h0c-.9-.2-1-.3-1.1-2.1v-11.9c0-1.8.2-1.9,1.1-2h0c-.6,0-1.3,0-1.9,0s-1.3,0-1.9,0h0c.9.2,1,.3,1.1,2.1v11.9c0,1.8-.2,1.9-1.1,2h0c.6,0,1.3,0,1.9,0s1.3,0,1.9,0ZM223,73h0c.6,0,2.1,0,4.4,0s3.2,0,4.6,0c0-.6.1-1.6.1-2.9h-.1c0,1.1-.5,1.6-.9,1.9-.2.2-1.2.2-1.8.3h-1.5c-1,0-1.6,0-1.9-.1v-7.2c.8,0,1.4,0,1.7,0,.4,0,.8,0,1.2,0,.4,0,.7.1.8.2.5.3.8.7.9,1.7h.1c0-1,0-1.7,0-2.3s0-1.1,0-2.1h-.1c0,.9-.4,1.2-.9,1.5-.3,0-1.2.2-2,.2h-1.7v-6.6c.3,0,.9-.1,1.9-.1,1.7,0,2.8.1,3.2.3.5.2.7.8.7,1.7h.1c0-.4.1-1,.1-1.8s0-.9,0-.9c-.7,0-2.7,0-6.1,0s-2.2,0-2.8,0h0c.6.2.9.4,1.1.6.2.2.3.7.3,1.5v11.9c0,1.5-.2,1.8-1.3,2ZM248.1,46.8c2.3,0,4.2-.8,5.7-2.4,1.5-1.6,2.3-3.5,2.3-5.8s-.8-4.3-2.3-5.9c-1.5-1.6-3.4-2.4-5.6-2.4s-3,.4-4.3,1.2-2.2,1.8-2.8,3.1c-.6,1.3-.9,2.6-.9,4,0,2.1.7,4,2.2,5.7,1.5,1.6,3.4,2.4,5.7,2.4ZM244.1,32.7c1.1-1.2,2.5-1.8,4-1.8s3.1.7,4.2,2,1.8,3.3,1.8,5.9-.6,4.3-1.7,5.6c-1.1,1.3-2.6,1.9-4.3,1.9s-3.1-.6-4.2-1.9c-1.1-1.3-1.6-3.2-1.6-5.7s.7-4.8,1.8-5.9ZM220.9,121c-2-1.7-5.6-3.1-10.2-3.1s-1.4,0-2.5,0c-1.1,0-1.9,0-2.4,0-1.6,0-2.9,0-3.9,0v.5c.8.1,1.2.5,1.4,1,.2.5.3,1.8.3,3.7v13.9c0,1.9,0,3.1-.3,3.7-.2.5-.6.9-1.4,1v.5c1,0,2.3,0,3.9,0s1.8,0,3.2,0c1.4,0,2.3,0,2.7,0,4.2,0,7.5-1.2,9.8-3.5,2.3-2.3,3.5-5.2,3.5-8.7s-.3-3.8-1.5-6.1c-.6-1.2-1.4-2.2-2.4-3ZM210.9,141.3c-1.5,0-2.5,0-3-.3v-21.7c.5-.2,1.4-.3,2.5-.3s2,0,3.4.4c1.4.3,2.3.8,3.4,1.9,1.6,1.6,2.7,4.4,2.7,8.9,0,7.5-3,11.2-8.9,11.2ZM218.4,57.1c.8.2,1.2.4,1.2,1.1s-.3,1.4-.8,3.1l-3.2,9.1-4.1-11.3c-.2-.5-.3-.9-.3-1.1,0-.5.4-.8,1.2-.8h0c-.6,0-1.4,0-2.2,0s-1.8,0-2.4,0h0c.5.2.9.3,1.1.5.2.2.5.6.7,1.2l5.4,14.8h.1l4.3-12c.6-1.7,1.1-2.8,1.4-3.3.4-.6.8-.9,1.4-1.1h0c-.6,0-1.1,0-1.5,0-1,0-1.8,0-2.4,0h0ZM328.6,118v.5c1,.3,1.7,1,2,2.3.3,1.2.5,3.7.5,7.4v7l-16.5-17.5h-.6c0,2.2.1,7,.1,14.5s0,6.4-.3,7.6c-.2,1.1-.7,1.8-1.5,2.1v.5c.9,0,1.8,0,2.6,0s2.1,0,3.1,0v-.5c-1-.3-1.6-1-2-2.3-.3-1.3-.5-3.7-.5-7.3v-6.7c4.7,4.5,10.2,10.4,16.7,17.5h.4c-.1-1.8-.2-4.1-.2-6.8v-8c0-4,0-6.5.3-7.6.2-1.1.7-1.8,1.6-2v-.5c-.9,0-1.8,0-2.6,0s-2.1,0-3.1,0ZM311.5,73h0c.6,0,2.1,0,4.4,0s3.2,0,4.6,0c0-.6.1-1.6.1-2.9h-.1c0,1.1-.5,1.6-.9,1.9-.2.2-1.2.2-1.8.3h-1.5c-1,0-1.6,0-1.9-.1v-7.2c.8,0,1.4,0,1.7,0,.4,0,.8,0,1.2,0s.7.1.8.2c.5.3.8.7.9,1.7h.1c0-1,0-1.7,0-2.3s0-1.1,0-2.1h-.1c0,.9-.4,1.2-.9,1.5-.3,0-1.2.2-2,.2h-1.7v-6.6c.3,0,.9-.1,1.9-.1,1.7,0,2.8.1,3.2.3.5.2.7.8.7,1.7h.1c0-.4.1-1,.1-1.8s0-.9,0-.9c-.7,0-2.7,0-6.1,0s-2.2,0-2.8,0h0c.6.2.9.4,1.1.6.2.2.3.7.3,1.5v11.9c0,1.5-.2,1.8-1.3,2ZM210.6,46.6h0c-.7-.2-1-.5-1-1.1s.1-.8.4-1.5l1.3-3.6c.5,0,1.3,0,2.3,0h2.5l1.3,4.2c.2.6.3,1,.3,1.1,0,.5-.3.7-1,.8h0c1.3,0,2.7,0,3.9.1h0c-.4-.2-.7-.3-.8-.4-.1-.2-.3-.6-.5-1.3l-4.6-14.7h-.2l-5,13.3c-.5,1.2-.8,2-1.1,2.3-.3.3-.7.6-1.3.7h0c.6,0,1.1,0,1.5,0,.7,0,1.4,0,2.1,0ZM214,33.3l2,6.5h-2.3c-.9,0-1.6,0-2.1,0l2.4-6.5ZM258.3,95.7c0,3.6,1.2,6.5,3.7,8.8,2.5,2.3,5.3,3.5,8.6,3.5s6.2-1.2,8.6-3.5c2.5-2.3,3.7-5.2,3.7-8.8s-.6-4.6-1.8-6.4c-1.2-1.9-2.7-3.4-4.5-4.4-1.9-1-3.9-1.5-6-1.5-4.3,0-8.2,2.1-10.6,5.9-1.2,1.9-1.7,4.1-1.7,6.4ZM270.6,84.4c5.1,0,7.4,3.6,7.4,11.3s-2.3,11.2-7.4,11.2-7.4-3.5-7.4-11.2,2.3-11.3,7.4-11.3ZM271.2,65.1c0,2.1.8,4.1,2.2,5.6,1.4,1.5,3.7,2.5,6.5,2.5s2.8-.4,4-.9c.6-.3,1.1-.5,1.3-.5v-4.3c0-1.7.2-1.9,1-2h0c-.6,0-1.2,0-1.8,0s-1.4,0-2.1,0h0c.5.2.6.2.9.5.3.3.4.8.4,1.7v4c-.8.8-2.1,1.3-3.6,1.3s-3.5-.7-4.8-2.2c-1.3-1.4-1.9-3.3-1.9-5.6s.8-4.8,2.1-5.9c1.3-1.1,2.8-1.7,4.4-1.7s2.7.3,3.7.9c1,.6,1.6,1.5,1.7,2.7h.1c0-.1,0-.4,0-.9,0-.9,0-1.6,0-2.1-.9-.3-1.5-.5-2-.6-.4-.1-1-.2-1.7-.3-.7-.1-1.3-.2-2-.2-2.6,0-4.6.8-6.1,2.4-1.5,1.6-2.3,3.6-2.3,5.8ZM265.2,57.7c1.7,0,2.8.1,3.2.3.5.2.7.8.7,1.7h.1c0-.4.1-1,.1-1.8s0-.9,0-.9c-.7,0-2.7,0-6.1,0s-2.2,0-2.8,0h0c.6.2.9.4,1.1.6.2.2.3.7.3,1.5v11.9c0,1.5-.2,1.8-1.3,2h0c.6,0,2.1,0,4.4,0s3.2,0,4.6,0c0-.6.1-1.6.1-2.9h-.1c0,1.1-.5,1.6-.9,1.9-.2.2-1.2.2-1.8.3h-1.5c-1,0-1.6,0-1.9-.1v-7.2c.8,0,1.4,0,1.7,0,.4,0,.8,0,1.2,0,.4,0,.7.1.8.2.5.3.8.7.9,1.7h.1c0-1,0-1.7,0-2.3s0-1.1,0-2.1h-.1c0,.9-.4,1.2-.9,1.5-.3,0-1.2.2-2,.2h-1.7v-6.6c.3,0,.9-.1,1.9-.1ZM243.8,83.5c-1.6,0-2.9,0-3.9,0v.5c.8.1,1.2.5,1.4,1,.2.5.3,1.8.3,3.7v13.9c0,1.9,0,3.1-.3,3.7-.2.5-.6.9-1.4,1v.5c1,0,2.3,0,3.9,0,6.2,0,10.2,0,11.8,0,0-1.3,0-3.5,0-6.7h-.5c-.8,2.5-1.7,4-3,4.7-1.3.7-2.1.8-3.9.8s-1.7,0-2.3-.1v-10.6h2c2.6,0,4,.4,4.4,2.5h.5c0-1.1-.1-2.2-.1-3.4s0-1.8.1-3.1h-.5c-.6,2.4-1.9,2.9-4.4,2.9h-2v-9.8c.5,0,1.3-.1,2.3-.1s1.5,0,1.9,0c.4,0,.9,0,1.5.3.6.2,1.1.4,1.4.7.7.7,1.5,1.9,2.2,3.8h.5c0-.5,0-1.3,0-2.4s0-2.6,0-3.7c-1.7,0-5.6,0-12,0ZM310,73.1c0-.6.1-1.6.1-2.9h-.1c0,1.1-.5,1.6-.9,1.9-.2.2-1.2.2-1.8.3h-1.5c-1,0-1.6,0-1.9-.1v-13.1c0-1.8.2-1.9,1.1-2h0c-.6,0-1.3,0-1.9,0s-1.3,0-1.9,0h0c.9.2,1,.3,1.1,2.1v11.9c0,1.5-.2,1.8-1.3,2h0c.6,0,2.1,0,4.4,0s3.2,0,4.6,0ZM322.8,69.4c-.2.4-.3.9-.3,1.4s.1,1.2.1,1.5,0,.5,0,.6c0,0,.2,0,.3,0,.3,0,.8,0,1.4.2.6.2,1.2.2,1.7.2,1.3,0,2.4-.4,3.3-1.2.9-.8,1.3-1.9,1.3-3.3s-.7-2.9-1.7-3.7c-.5-.4-1-.8-1.6-1.2-1.1-.8-2.2-1.4-2.8-2.5-.3-.6-.5-1.1-.5-1.8,0-1.7,1.2-2.5,2.7-2.5s2.8.8,3.1,2.5h.1c0-.2,0-.6,0-1.2s0-1,0-1.5c0,0-.2,0-.4,0-.2,0-.7,0-1.3-.2-.6-.1-1.1-.2-1.6-.2-1.2,0-2.2.4-2.9,1.1-.8.7-1.1,1.7-1.1,2.8,0,4.8,6.6,4.7,6.6,9.1s-1.3,3-3,3-1.8-.2-2.5-.8c-.7-.5-1-1.2-1-2s0-.3,0-.6h-.1ZM286.1,73.1c.6,0,1.1,0,1.5,0,.7,0,1.4,0,2.1,0h0c-.7-.2-1-.5-1-1.1s.1-.8.4-1.5l1.3-3.6c.5,0,1.3,0,2.3,0h2.5l1.3,4.2c.2.6.3,1,.3,1.1,0,.5-.3.7-1,.8h0c1.3,0,2.7,0,3.9.1h0c-.4-.2-.7-.3-.8-.4-.1-.2-.3-.6-.5-1.3l-4.6-14.7h-.2l-5,13.3c-.5,1.2-.8,2-1.1,2.3-.3.3-.7.6-1.3.7h0ZM293,59.7l2,6.5h-2.3c-.9,0-1.6,0-2.1,0l2.4-6.5ZM252.8,72.2v-13.1c0-1.8.2-1.9,1.1-2h0c-.6,0-1.3,0-1.9,0s-1.3,0-1.9,0h0c.9.2,1,.3,1.1,2.1v11.9c0,1.5-.2,1.8-1.3,2h0c.6,0,2.1,0,4.4,0s3.2,0,4.6,0c0-.6.1-1.6.1-2.9h-.1c0,1.1-.5,1.6-.9,1.9-.2.2-1.2.2-1.8.3h-1.5c-1,0-1.6,0-1.9-.1ZM343.3,119.5c.2-.6.6-.9,1.4-1v-.5c-1,0-2.3,0-3.9,0s-2.9,0-3.9,0v.5c.8.1,1.2.5,1.4,1,.2.5.3,1.8.3,3.7v13.9c0,1.9,0,3.1-.3,3.7-.2.5-.6.9-1.4,1v.5c1,0,2.3,0,3.9,0s2.9,0,3.9,0v-.5c-.8-.1-1.2-.5-1.4-1-.2-.6-.3-1.8-.3-3.7v-13.9c0-1.9,0-3.1.3-3.7ZM261.6,46.6h0c-.3-.2-.5-.3-.6-.4-.4-.2-.6-.7-.7-1.5-.1-.9-.2-4.2-.2-9.7v-2l12.5,14h.1v-5.1c0-3.5,0-5.9,0-7,0-2.1.2-3.4.5-3.8.2-.2.5-.4,1-.5h0c-1.2,0-2.4,0-3.7-.1h0c0,.1,0,.1,0,.1.2,0,.4.1.5.2.4.2.6.7.7,1.4.2,1,.2,4.3.2,9.9v2l-12.5-13.9h-.2v4.9c0,3.5,0,5.8,0,6.9,0,2.2-.2,3.5-.5,4-.1.2-.4.4-.9.6h0c.6,0,1.2,0,1.7,0s1.2,0,1.9,0ZM308.4,137.8l-6.5-20.3h-1.1l-6.7,17.2c-.9,2.4-1.7,4.2-2.4,5.1-.6,1-1.4,1.6-2.4,1.9v.5c.9,0,1.8,0,2.6,0,1.3,0,2.4,0,3.4,0v-.5c-.8-.2-1.2-.8-1.2-1.9s.4-2.4,1.1-4.3l.4-1c.6,0,1.7,0,3.3,0s2.8,0,3.7,0l1.1,3.2c.4,1.2.6,2.1.6,2.7,0,.8-.5,1.2-1.4,1.4v.5c1,0,2.5,0,4.4,0s2.7,0,3.6,0v-.5c-1-.5-1.8-1.8-2.5-4ZM298.9,133.1c-1.4,0-2.3,0-2.8,0l3.2-8.5,2.8,8.5c-.7,0-1.8,0-3.2,0ZM207,57.1h0c-.6,0-1.3,0-1.9,0s-1.3,0-1.9,0h0c.9.2,1,.3,1.1,2.1v11.9c0,1.8-.2,1.9-1.1,2h0c.6,0,1.3,0,1.9,0s1.3,0,1.9,0h0c-.9-.2-1-.3-1.1-2.1v-11.9c0-1.8.2-1.9,1.1-2ZM102.3,105.9c-2.8,17.7-8.7,30.9-20,44.4-3,3.7-6.3,7.2-9.5,10.7l-3.1,3.3,1.8-1.3c21-15.2,32.1-35.5,31.2-57.1h-.4ZM109.1,62.9s0,0,0,0c-1.4,0-2.6.5-3.5,1.4,0-7.1-.2-15-.6-23h-.4c-.9,10.6-1.4,21.1-1.7,29.9v.2s0,0,0,0v.5s.3-.3.3-.3c.4,0,2.2.2,2.2.2h.2s0-.1,0-.1h0s0-.1,0-.1c.3-1.7.9-5.1,3.1-5.5.9,0,1.7.2,2.3.8,1.6,1.5,1.8,4.7,1.8,7.4,0,4-.4,8.1-1.3,12.4-.6,2.5-1.4,5.1-2.5,8-.5,1.4-1.4,3.1-2.7,3.6-.6.2-1.2.2-1.8,0-1.3-1-1-3.2-.7-5.2,0-.8.2-1.5.2-2,.3-2.8.5-5.7.7-8.6h-.4c-.6,2.8-1.2,5.7-1.7,8.4,0,.6-.2,1.3-.4,1.9-.3,1.6-.7,3.2-.4,4.8.2,1.4,1,2.4,2.3,2.9.5.2,1.1.3,1.6.3,1,0,2.1-.4,2.9-1,1.4-1.1,2.1-2.5,2.8-4,2.5-5.4,4-11.1,4.4-17.1,0-.7,0-1.4,0-2.1.2-3.9.4-8.3-2.4-11.5-1-1.2-2.6-1.9-4.3-1.9ZM59.2,136.3c-2.9.5-5.4,2.1-6.6,4.3l-.3.5,1.3-.3c1.9-.5,4.4-1.1,6.1-1.3,1.7-.3,4.2-.5,6.2-.6h1.3c0-.1-.4-.5-.4-.5-1.9-1.7-4.7-2.5-7.6-2ZM233.5,86.5c-2-1.7-5.6-3.1-10.2-3.1s-1.4,0-2.5,0c-1.1,0-1.9,0-2.4,0-1.6,0-2.9,0-3.9,0v.5c.8.1,1.2.5,1.4,1,.2.5.3,1.8.3,3.7v13.9c0,1.9,0,3.1-.3,3.7-.2.5-.6.9-1.4,1v.5c1,0,2.3,0,3.9,0s1.8,0,3.2,0c1.4,0,2.3,0,2.7,0,4.2,0,7.5-1.2,9.8-3.5,2.3-2.3,3.5-5.2,3.5-8.7s-.3-3.8-1.5-6.1c-.6-1.2-1.4-2.2-2.4-3ZM223.5,106.7c-1.5,0-2.5,0-3-.3v-21.7c.5-.2,1.4-.3,2.5-.3s2,0,3.4.4c1.4.3,2.3.8,3.4,1.9,1.6,1.6,2.7,4.4,2.7,8.9,0,7.5-3,11.2-8.9,11.2ZM30.4,133.3c-2.9-6.4-5.1-13.6-6.8-22.1l-.3-1.6c-1.9-10.4-4-22.1,2.3-31.4.6-.9,1.4-1.8,2.1-2.5,3.5,2.6,8,4,12.8,4s5-.4,7.5-1.1c.3.9.5,1.8.6,2.7,0,.3.1.7.2,1,2.5,13.5,2.9,28.6,1.2,46.2l-1.3.6,1.3-.2c0,.1,0,.3,0,.4v.3s.3,0,.3,0c.2,0,.5,0,.7-.1h0s0,0,0,0c3.4-.7,6.8-1.4,10.1-2.1h.2s0-.3,0-.3h.2c-1.6-8.5-2.5-15.5-2.9-22-.5-10.1-.2-21.7,5.1-31.8,0,0,0,0,0,0,10.6,1,21.7-3.6,28.7-12.2l1.5-1.8h-.4c-1.2-.3-1.7-.4-1.9-.4h0c-10.2-1.9-21.2,1.7-28.1,9.2-2.9,3.6-5,8.4-6.3,14.6-2.5,12.7-1.3,26.8,3.8,44.2h-.2c-3.2.5-6.4,1-9.6,1.5,1.2-8,1.8-15.5,1.9-22.8.2-8.5-.4-16.2-1.6-23.6,0-.4-.1-.8-.2-1.1-.3-1.7-.6-3.3-1.4-4.9-.9-1.9-2.4-3.6-4.4-4.9-5.7-3.7-12.7-3.2-18.1.8-4.1-7-5-16-2.4-24.5,5.2-16.1,18.7-27.7,32.1-38.2l-.3-.4c-13.1,7.7-22.6,16.1-29.1,25.7-8.5,12.3-9.7,27.2-3,38l.2.4c.1.2.3.4.4.6-.9.9-1.7,1.9-2.5,3-7.3,10.5-4.7,23.7-2.4,35.3,1.7,8.8,5.4,21.6,13.7,32.8,7.7,10.6,17.5,17.1,28.9,19.3v-.4c-13.7-3.5-26-14.8-32.9-30.2ZM80.7,61.8c2-.5,4.1-.7,6.2-.7s1.3,0,1.9,0c-6.1,6.9-15.2,11.1-24.5,11.3,4.2-6.9,12.1-9.6,16.4-10.6ZM34,71.8c5.8-1.7,11.5,1.4,13.5,5.2.1.3.3.6.4.9-7.1,1.1-13.8-.3-18.2-3.9,1.4-1,2.8-1.8,4.4-2.2ZM193.1,119.4c-1.9-1-3.9-1.5-6-1.5-4.3,0-8.2,2.1-10.6,5.9-1.2,1.9-1.7,4.1-1.7,6.4,0,3.6,1.2,6.5,3.7,8.8,2.5,2.3,5.3,3.5,8.6,3.5s6.2-1.2,8.6-3.5c2.5-2.3,3.7-5.2,3.7-8.8s-.6-4.6-1.8-6.4c-1.2-1.9-2.7-3.4-4.5-4.4ZM187.1,141.5c-5.1,0-7.4-3.5-7.4-11.2s2.3-11.3,7.4-11.3,7.4,3.6,7.4,11.3-2.3,11.2-7.4,11.2ZM254.3,130.4v.5c.8.1,1.2.5,1.4,1,.2.5.3,1.8.3,3.7v4c-1.2,1.3-2.8,1.9-5,1.9s-4.7-.9-6.2-2.8c-1.6-1.9-2.3-4.7-2.3-8.3s.8-6.4,2.4-8.4c1.6-2,3.7-3,6.4-3,4,0,6.7,2.2,8.2,6.6h.5c0-1.2,0-2.2,0-3.1,0-1.4,0-2.5,0-3.5-.8,0-2.1-.2-4-.6-1.9-.4-3.5-.6-4.9-.6-4.4,0-8.1,1.5-10.2,3.9-2.1,2.3-3.3,5.2-3.3,8.4s1.2,6.4,3.6,8.8c2.4,2.4,5.6,3.6,9.6,3.6s4.7-.6,5.8-1.3c1.2-.6,2.4-1.3,3.3-1.3s.6,0,.7.1h.1c-.1-.6-.2-2-.2-4.3s.1-3.2.3-3.8c.2-.6.7-1,1.4-1.1v-.5c-1,0-2.3,0-3.9,0s-2.9,0-3.9,0ZM211.5,101h-.5c-.8,2.5-1.7,4-3,4.7-1.3.7-2.1.8-3.9.8s-1.7,0-2.3-.1v-10.6h2c2.6,0,4,.4,4.4,2.5h.5c0-1.1-.1-2.2-.1-3.4s0-1.8.1-3.1h-.5c-.6,2.4-1.9,2.9-4.4,2.9h-2v-9.8c.5,0,1.3-.1,2.3-.1s1.5,0,1.9,0c.4,0,.9,0,1.5.3.6.2,1.1.4,1.4.7.7.7,1.5,1.9,2.2,3.8h.5c0-.5,0-1.3,0-2.4s0-2.6,0-3.7c-1.7,0-5.6,0-12,0s-2.9,0-3.9,0v.5c.8.1,1.2.5,1.4,1,.2.5.3,1.8.3,3.7v13.9c0,1.9,0,3.1-.3,3.7-.2.5-.6.9-1.4,1v.5c1,0,2.3,0,3.9,0,6.2,0,10.2,0,11.8,0,0-1.3,0-3.5,0-6.7ZM149,107.7v-.5c-.8-.2-1.2-.8-1.2-1.9s.4-2.4,1.1-4.3l.4-1c.6,0,1.7,0,3.3,0s2.8,0,3.7,0l1.1,3.2c.4,1.2.6,2.1.6,2.7,0,.8-.5,1.2-1.4,1.4v.5c1,0,2.5,0,4.4,0s2.7,0,3.6,0v-.5c-1-.5-1.8-1.8-2.5-4l-6.5-20.3h-1.1l-6.7,17.2c-.9,2.4-1.7,4.2-2.4,5.1-.6,1-1.4,1.6-2.4,1.9v.5c.9,0,1.8,0,2.6,0,1.3,0,2.4,0,3.4,0ZM153,90l2.8,8.5c-.7,0-1.8,0-3.2,0s-2.3,0-2.8,0l3.2-8.5ZM227.3,118v.5c.8.1,1.2.5,1.4,1,.2.5.3,1.8.3,3.7v13.9c0,1.9,0,3.1-.3,3.7-.2.5-.6.9-1.4,1v.5c1,0,2.3,0,3.9,0s2.9,0,3.9,0v-.5c-.8-.1-1.2-.5-1.4-1-.2-.6-.3-1.8-.3-3.7v-13.9c0-1.9,0-3.1.3-3.7.2-.6.6-.9,1.4-1v-.5c-1,0-2.3,0-3.9,0s-2.9,0-3.9,0ZM172,140.1c-.3-1-.4-1.5-.6-3l-3.1-19.6h-.8l-8,18.3-8.4-18.3h-.8l-3.2,18.4c-.4,2-.7,3.4-1,4.2-.3.8-.8,1.4-1.5,1.6v.5c.9,0,1.7,0,2.2,0,1.2,0,2.3,0,3.3,0v-.5c-1.2-.3-1.8-1.3-1.8-3.1s0-1.6.3-2.6l1.7-9.9,7.4,16.3h.6l6.9-16,1.9,10.8c.3,1.5.4,2.5.4,2.9,0,.9-.4,1.4-1.1,1.6v.5c1,0,2.1,0,3.4,0s2.5,0,3.5,0v-.5c-.5-.2-.9-.7-1.2-1.7ZM172.5,70.7c1.4,1.5,3.7,2.5,6.5,2.5s3.6-.5,5.5-1.4c0-.9,0-1.7.1-2.4h-.1c-.3,1.1-.9,1.9-1.9,2.4-1,.6-2.1.8-3.2.8-1.7,0-3.3-.6-4.7-1.7-1.3-1.2-2.3-3.2-2.3-5.8s.7-4.8,1.9-6c1.2-1.2,2.8-1.9,4.5-1.9s2.8.3,3.8.9c1,.6,1.6,1.5,1.7,2.6h.1c0,0,0-.6,0-.8,0-.8,0-1.5,0-2.1l-.7-.2c-.4-.1-.6-.2-.8-.2-.3,0-1.1-.3-1.6-.4-.8-.1-1.9-.3-2.7-.3-2.7,0-5,1-6.3,2.6-1.3,1.6-2.1,3.6-2.1,5.6s.8,4.1,2.2,5.6ZM196.2,46.6c1.1,0,1.8,0,2.2,0,2.8,0,4.9-.8,6.3-2.3,1.5-1.5,2.2-3.4,2.2-5.7s-.9-4.6-2.6-6c-1.7-1.4-4.1-2.2-7.2-2.2s-.9,0-1.7,0h-1.8c-.8,0-1.5,0-2.1,0h0c.6.2.8.2,1.1.5.4.3.4.8.4,1.6v11.9c0,.9,0,1.3-.4,1.6-.3.3-.5.3-1.2.4h0c.6,0,1.4,0,2.4,0s1.2,0,2.3,0ZM194.7,31.3c.7-.2,1.5-.2,2.5-.2,2.3,0,4.2.6,5.7,1.8,1.4,1.2,2.1,3.1,2.1,5.7,0,5.9-2.9,7.6-6.7,7.6s-2.5-.1-3.6-.3v-14.5ZM176.9,46.6h0c-.3-.2-.5-.3-.6-.4-.4-.2-.6-.7-.7-1.5-.1-.9-.2-4.2-.2-9.7v-2l12.5,14h.1v-5.1c0-3.5,0-5.9,0-7,0-2.1.2-3.4.5-3.8.2-.2.5-.4,1-.5h0c-1.2,0-2.4,0-3.7-.1h0c0,.1,0,.1,0,.1.2,0,.4.1.5.2.4.2.6.7.7,1.4.2,1,.2,4.3.2,9.9v2l-12.5-13.9h-.2v4.9c0,3.5,0,5.8,0,6.9,0,2.2-.2,3.5-.5,4-.1.2-.4.4-.9.6h0c.6,0,1.2,0,1.7,0s1.2,0,1.9,0ZM146.9,73.1h0c-.7-.2-1-.5-1-1.1s.1-.8.4-1.5l1.3-3.6c.5,0,1.3,0,2.3,0h2.5l1.3,4.2c.2.6.3,1,.3,1.1,0,.5-.3.7-1,.8h0c1.3,0,2.7,0,3.9.1h0c-.4-.2-.7-.3-.8-.4-.1-.2-.3-.6-.5-1.3l-4.6-14.7h-.2l-5,13.3c-.5,1.2-.8,2-1.1,2.3-.3.3-.7.6-1.3.7h0c.6,0,1.1,0,1.5,0,.7,0,1.4,0,2.1,0ZM150.3,59.7l2,6.5h-2.3c-.9,0-1.6,0-2.1,0l2.4-6.5ZM190.6,57.1h0c-.6,0-1.3,0-1.9,0s-1.3,0-1.9,0h0c.9.2,1,.3,1.1,2.1v11.9c0,1.8-.2,1.9-1.1,2h0c.6,0,1.3,0,1.9,0s1.3,0,1.9,0h0c-.9-.2-1-.3-1.1-2.1v-6.2c.9,0,2.3,0,4.1,0s3.4,0,4.4,0v6.2c0,1.8-.2,1.9-1.1,2h0c.6,0,1.3,0,1.9,0s1.3,0,1.9,0h0c-.9-.2-1-.3-1.1-2.1v-11.9c0-1.8.2-1.9,1.1-2h0c-.6,0-1.3,0-1.9,0s-1.3,0-1.9,0h0c.9.2,1,.3,1.1,2.1v5c-1,0-2.4,0-4.4,0s-3.2,0-4.1,0v-5c0-1.8.2-1.9,1.1-2ZM186.9,107.2v.5c1,0,2.1,0,3.4,0s2.5,0,3.5,0v-.5c-.5-.2-.9-.7-1.2-1.7-.3-1-.4-1.5-.6-3l-3.1-19.6h-.8l-8,18.3-8.4-18.3h-.8l-3.2,18.4c-.4,2-.7,3.4-1,4.2-.3.8-.8,1.4-1.5,1.6v.5c.9,0,1.7,0,2.2,0,1.2,0,2.3,0,3.3,0v-.5c-1.2-.3-1.8-1.3-1.8-3.1s0-1.6.3-2.6l1.7-9.9,7.4,16.3h.6l6.9-16,1.9,10.8c.3,1.5.4,2.5.4,2.9,0,.9-.4,1.4-1.1,1.6ZM162.5,65.9c.2.2.5.6.7,1l.6,1c.7,1.3,1.2,2.3,1.6,2.9.3.6.7,1.1,1.1,1.5.4.4.8.6,1.1.7.3,0,.8.1,1.4.1.2,0,.4,0,.6,0h0c-.6-.3-1.3-1-2.1-2.1-.8-1.1-1.4-2.3-2-3.4-.6-1.1-1-1.8-1.1-1.9,2.5-.6,3.8-2.3,3.8-4.2s-.5-2.4-1.4-3.2c-.9-.8-2.2-1.2-3.8-1.2s-.5,0-1.1,0-1,0-1.2,0c-.9,0-1.6,0-2.1,0h0c.9.3,1.1.6,1.1,2.1v11.9c0,1.8-.2,1.9-1.1,2h0c.6,0,1.3,0,1.9,0s1.3,0,1.9,0h0c-.9-.2-1-.3-1.1-2.1v-5.1h1.4ZM161.1,57.7c.5-.2,1.1-.2,1.6-.2,2.2,0,3.5,1.7,3.5,4.2s-1,3.7-4,3.7h-1.1v-7.7ZM281.4,118v.5c.8.1,1.2.5,1.4,1,.2.5.3,1.8.3,3.7v13.9c0,1.9,0,3.1-.3,3.7-.2.5-.6.9-1.4,1v.5c1,0,2.3,0,3.9,0s2.9,0,3.9,0v-.5c-.8-.1-1.2-.5-1.4-1-.2-.6-.3-1.8-.3-3.7v-13.9c0-1.9,0-3.1.3-3.7.2-.6.6-.9,1.4-1v-.5c-1,0-2.3,0-3.9,0s-2.9,0-3.9,0ZM277,140.3c-1,.6-1.7.7-3,.7s-2.9,0-3.9-.1v-17.7c0-1.9,0-3.1.3-3.7.2-.6.6-.9,1.4-1v-.5c-1,0-2.3,0-3.9,0s-2.9,0-3.9,0v.5c.8.1,1.2.5,1.4,1,.2.5.3,1.8.3,3.7v13.9c0,1.9,0,3.1-.3,3.7-.2.5-.6.9-1.4,1v.5c1,0,2.3,0,3.9,0,6,0,9.9,0,11.5,0,0-1,0-3.1.1-6.1h-.5c-.4,2.2-1.1,3.5-2.1,4.2ZM146.2,31.1c.2.2.3.7.3,1.5v11.9c0,1.8-.2,1.9-1.1,2h0c.6,0,1.3,0,1.9,0s1.4,0,2.1,0h0c-.5-.2-.8-.3-1-.6-.2-.2-.2-.8-.2-1.6v-6c.8,0,1.3,0,1.7,0,.4,0,.8,0,1.2,0,.4,0,.7,0,.8.2.5.2.8.6.8,1.5h.1c0-1,0-1.7,0-2.1,0-.6,0-1.4,0-2.3h-.1c0,.3,0,.6-.1.7-.1.5-.4.9-.8,1s-1.6.2-3.6.2v-6.5c.3,0,1-.1,1.9-.1,1.7,0,2.8.1,3.2.3.5.2.7.8.7,1.7h.1c0-.4.1-1,.1-1.8s0-.9,0-.9c-.7,0-2.7,0-6.1,0s-2.2,0-2.8,0h0c.6.2.9.4,1.1.6ZM163.4,46.8c2.3,0,4.2-.8,5.7-2.4,1.5-1.6,2.3-3.5,2.3-5.8s-.8-4.3-2.3-5.9c-1.5-1.6-3.4-2.4-5.6-2.4s-3,.4-4.3,1.2-2.2,1.8-2.8,3.1c-.6,1.3-.9,2.6-.9,4,0,2.1.7,4,2.2,5.7,1.5,1.6,3.4,2.4,5.7,2.4ZM159.4,32.7c1.1-1.2,2.5-1.8,4-1.8s3.1.7,4.2,2,1.8,3.3,1.8,5.9-.6,4.3-1.7,5.6c-1.1,1.3-2.6,1.9-4.3,1.9s-3.1-.6-4.2-1.9c-1.1-1.3-1.6-3.2-1.6-5.7s.7-4.8,1.8-5.9Z"/>
</svg>